<?xml version="1.0" encoding="utf-8"?>
<!-- Generator: Adobe Illustrator 27.5.0, SVG Export Plug-In . SVG Version: 6.00 Build 0)  -->
<svg version="1.1" id="background" xmlns="http://www.w3.org/2000/svg" xmlns:xlink="http://www.w3.org/1999/xlink" x="0px" y="0px"
	 viewBox="0 0 600 400" style="enable-background:new 0 0 600 400;" xml:space="preserve">
<g>
	<linearGradient id="SVGID_1_" gradientUnits="userSpaceOnUse" x1="781.4805" y1="-167.0302" x2="-29.2864" y2="451.0134">
		<stop  offset="0" style="stop-color:#0A0732"/>
		<stop  offset="0.9988" style="stop-color:#05041C"/>
	</linearGradient>
	<rect style="fill:url(#SVGID_1_);" width="600" height="400"/>
	<g>
		<g style="opacity:0.25;">
			<path style="fill:#5F5FCE;" d="M388.72,400h-1.15c-46.41-79.7-103.26-93.65-153.63-106.01c-37.82-9.29-70.49-17.3-92.42-50.77
				c-20.69-31.57-33.45-50.14-55.23-64.49C67.3,166.2,41.52,157.45,0,149.79v-1c91.98,17,106.82,39.64,142.35,93.88
				c21.72,33.14,54.21,41.11,91.83,50.35C284.85,305.45,342.06,319.49,388.72,400z"/>
			<path style="fill:#5F5FCE;" d="M382.22,400h-1.15c-45.81-74.97-101.22-88.57-150.43-100.64c-37.83-9.29-70.5-17.31-92.42-50.77
				c-20.69-31.58-33.46-50.14-55.22-64.5c-18.49-12.19-43.4-20.8-83-28.31v-1c89.04,16.93,103.94,39.66,139.04,93.26
				c21.72,33.14,54.22,41.11,91.84,50.34C280.39,310.54,336.16,324.23,382.22,400z"/>
			<path style="fill:#5F5FCE;" d="M375.58,400h-1.19c-45.13-70.26-99.04-83.49-147.05-95.28c-37.83-9.28-70.5-17.3-92.43-50.76
				c-20.69-31.58-33.45-50.14-55.22-64.5c-17.97-11.85-42-20.31-79.69-27.67v-1c86.12,16.87,101.08,39.69,135.75,92.62
				c21.71,33.13,54.2,41.11,91.83,50.34C275.9,315.62,330.17,328.93,375.58,400z"/>
			<path style="fill:#5F5FCE;" d="M368.76,400h-1.21c-44.4-65.58-96.76-78.43-143.52-89.91c-37.83-9.28-70.5-17.3-92.43-50.76
				c-20.69-31.58-33.44-50.14-55.21-64.5C58.95,183.33,35.8,175.02,0,167.81v-1c83.21,16.81,98.22,39.73,132.45,91.97
				c21.71,33.13,54.2,41.11,91.82,50.34C271.35,320.68,324.09,333.62,368.76,400z"/>
			<path style="fill:#5F5FCE;" d="M361.73,400h-1.23c-43.59-60.93-94.32-73.38-139.78-84.54c-37.82-9.28-70.5-17.3-92.41-50.76
				c-20.69-31.58-33.46-50.15-55.22-64.5C56.19,189.06,33.93,180.91,0,173.86v-1.01c80.3,16.75,95.36,39.76,129.14,91.3
				c21.71,33.13,54.2,41.1,91.83,50.34C266.75,325.72,317.88,338.27,361.73,400z"/>
			<path style="fill:#5F5FCE;" d="M354.51,400h-1.26c-42.67-56.31-91.73-68.35-135.82-79.17c-37.83-9.29-70.5-17.3-92.43-50.77
				c-20.69-31.57-33.46-50.14-55.22-64.49C53.44,194.79,32.08,186.81,0,179.92v-1c77.43,16.7,92.54,39.77,125.84,90.59
				c21.7,33.14,54.2,41.11,91.82,50.35C262.09,330.76,311.54,342.9,354.51,400z"/>
			<path style="fill:#5F5FCE;" d="M347.05,400h-1.29c-41.68-51.73-88.99-63.34-131.64-73.8c-37.83-9.29-70.5-17.31-92.42-50.77
				c-20.69-31.58-33.45-50.14-55.23-64.5C50.7,200.53,30.25,192.74,0,186.01v-1c74.56,16.65,89.71,39.78,122.53,89.87
				c21.7,33.14,54.2,41.11,91.82,50.34C257.35,335.78,305.07,347.49,347.05,400z"/>
			<path style="fill:#5F5FCE;" d="M339.3,400h-1.32c-40.57-47.18-86.03-58.34-127.16-68.44c-37.84-9.28-70.5-17.3-92.43-50.76
				c-20.68-31.58-33.45-50.14-55.23-64.5C47.97,206.28,28.44,198.68,0,192.13v-0.99c71.71,16.58,86.9,39.76,119.22,89.11
				c21.72,33.13,54.21,41.11,91.82,50.34C252.54,340.78,298.42,352.03,339.3,400z"/>
			<path style="fill:#5F5FCE;" d="M331.28,400h-1.37c-39.34-42.68-82.87-53.37-122.4-63.07c-37.83-9.28-70.5-17.3-92.42-50.76
				c-20.69-31.58-33.45-50.14-55.22-64.5c-14.6-9.63-33.2-17.02-59.87-23.39v-0.99c68.87,16.53,84.1,39.75,115.93,88.33
				c21.71,33.13,54.2,41.11,91.82,50.34C247.65,345.76,291.6,356.54,331.28,400z"/>
			<path style="fill:#5F5FCE;" d="M322.89,400h-1.45c-37.96-38.24-79.42-48.42-117.23-57.7c-37.83-9.28-70.5-17.3-92.42-50.76
				c-20.69-31.58-33.46-50.15-55.23-64.5C42.57,217.82,24.91,210.65,0,204.46v-1c66.08,16.48,81.31,39.73,112.62,87.53
				c21.71,33.13,54.2,41.11,91.83,50.34C242.65,350.7,284.57,360.99,322.89,400z"/>
			<path style="fill:#5F5FCE;" d="M314.1,400h-1.5c-36.43-33.86-75.72-43.5-111.7-52.33c-37.82-9.29-70.49-17.3-92.43-50.77
				c-20.68-31.57-33.44-50.14-55.21-64.49C39.9,223.6,23.18,216.66,0,210.65v-0.98c63.3,16.43,78.54,39.7,109.32,86.69
				c21.71,33.13,54.2,41.1,91.82,50.34C237.53,355.63,277.29,365.39,314.1,400z"/>
			<path style="fill:#5F5FCE;" d="M304.83,400h-1.56c-34.71-29.55-71.67-38.62-105.67-46.96c-37.83-9.29-70.5-17.31-92.42-50.77
				c-20.7-31.57-33.46-50.14-55.22-64.5C37.24,229.38,21.48,222.69,0,216.89v-0.98c60.53,16.39,75.77,39.66,106.01,85.81
				c21.71,33.14,54.21,41.11,91.83,50.35C232.27,360.52,269.72,369.71,304.83,400z"/>
			<path style="fill:#5F5FCE;" d="M295.01,400h-1.67c-32.75-25.33-67.19-33.78-99.05-41.6c-37.82-9.28-70.5-17.3-92.42-50.76
				c-20.68-31.58-33.46-50.14-55.22-64.5C34.59,235.19,19.81,228.76,0,223.18v-0.98c57.79,16.33,73.02,39.58,102.71,84.89
				c21.7,33.14,54.2,41.11,91.82,50.34C226.84,365.36,261.81,373.94,295.01,400z"/>
			<path style="fill:#5F5FCE;" d="M284.51,400h-1.8c-30.53-21.21-62.24-28.99-91.73-36.23c-37.82-9.28-70.5-17.3-92.41-50.76
				c-20.69-31.58-33.45-50.14-55.22-64.5C31.97,241.01,18.16,234.86,0,229.5v-0.97c55.08,16.28,70.29,39.5,99.41,83.93
				c21.69,33.13,54.19,41.11,91.81,50.34C221.21,370.16,253.47,378.08,284.51,400z"/>
			<path style="fill:#5F5FCE;" d="M273.14,400h-1.93c-27.98-17.22-56.67-24.27-83.52-30.86c-37.84-9.28-70.5-17.3-92.42-50.76
				c-20.69-31.58-33.46-50.14-55.23-64.5C29.37,246.84,16.55,241,0,235.88v-0.98c52.4,16.23,67.58,39.4,96.1,82.93
				c21.71,33.13,54.19,41.11,91.83,50.34C215.32,374.89,244.62,382.08,273.14,400z"/>
			<path style="fill:#5F5FCE;" d="M260.72,400h-2.14c-24.98-13.41-50.32-19.63-74.2-25.49c-37.84-9.29-70.49-17.3-92.42-50.76
				c-20.69-31.58-33.45-50.15-55.23-64.5c-9.95-6.56-21.76-12.09-36.73-16.97v-0.98c49.75,16.2,64.89,39.3,92.79,81.9
				c21.72,33.13,54.21,41.1,91.83,50.34C209.1,379.55,235.1,385.93,260.72,400z"/>
			<path style="fill:#5F5FCE;" d="M246.85,400h-2.38c-21.45-9.83-42.96-15.11-63.39-20.12c-37.83-9.29-70.5-17.3-92.42-50.77
				c-20.69-31.57-33.46-50.14-55.22-64.49c-9.21-6.08-20.02-11.26-33.44-15.87v-0.98c47.13,16.14,62.21,39.16,89.48,80.79
				c21.72,33.14,54.21,41.11,91.84,50.35C202.44,384.09,224.7,389.55,246.85,400z"/>
			<path style="fill:#5F5FCE;" d="M231.13,400h-2.79c-17.15-6.55-34.2-10.74-50.56-14.75c-37.83-9.29-70.5-17.31-92.43-50.77
				c-20.69-31.58-33.45-50.14-55.22-64.5c-8.44-5.57-18.22-10.39-30.13-14.7v-0.97c44.55,16.07,59.56,38.96,86.19,79.62
				c21.71,33.14,54.2,41.11,91.82,50.34C195.19,388.49,213.1,392.89,231.13,400z"/>
			<path style="fill:#5F5FCE;" d="M212.82,400h-3.34c-11.88-3.71-23.6-6.59-35.01-9.39c-37.83-9.28-70.5-17.3-92.43-50.76
				c-20.69-31.58-33.44-50.14-55.21-64.5c-7.65-5.04-16.39-9.47-26.83-13.47v-0.98c42.01,16.01,56.92,38.77,82.89,78.4
				c21.7,33.13,54.2,41.11,91.82,50.34C187.1,392.68,199.89,395.82,212.82,400z"/>
			<path style="fill:#5F5FCE;" d="M191.16,400h-3.94c-5.41-1.41-10.77-2.72-16.06-4.02c-37.82-9.28-70.5-17.3-92.41-50.76
				c-20.69-31.58-33.46-50.14-55.23-64.5C16.69,276.21,8.99,272.2,0,268.56v-0.99c39.51,15.94,54.3,38.53,79.58,77.1
				c21.71,33.13,54.2,41.11,91.83,50.34C177.9,396.6,184.48,398.22,191.16,400z"/>
			<path style="fill:#5F5FCE;" d="M166.54,400h-4.16c-35.49-8.77-66.09-17.58-86.94-49.42c-20.69-31.57-33.46-50.14-55.22-64.49
				C14.24,282.15,7.6,278.58,0,275.31v-1.01c37.05,15.87,51.71,38.26,76.28,75.74C97.69,382.71,129.59,390.92,166.54,400z"/>
			<path style="fill:#5F5FCE;" d="M142.39,400h-3.7c-26.8-7.78-49.81-18.49-66.55-44.05c-20.69-31.57-33.46-50.14-55.23-64.49
				c-5.09-3.36-10.67-6.45-16.91-9.31v-1.02c34.65,15.78,49.16,37.93,72.97,74.27C90.23,381.76,114.33,392.19,142.39,400z"/>
			<path style="fill:#5F5FCE;" d="M122,400h-2.88c-19.87-7.53-37.04-18.46-50.29-38.68c-20.69-31.57-33.45-50.14-55.23-64.5
				c-4.17-2.75-8.67-5.32-13.6-7.73v-1.04c32.29,15.68,46.63,37.56,69.66,72.72C83.32,381.61,101.22,392.49,122,400z"/>
			<path style="fill:#5F5FCE;" d="M105.73,400h-2.32c-14.65-7.28-27.48-17.43-37.88-33.31c-20.69-31.58-33.45-50.14-55.22-64.5
				c-3.22-2.13-6.65-4.14-10.31-6.06v-1.04c29.99,15.54,44.13,37.11,66.37,71.05C77.09,382.5,90.44,392.73,105.73,400z"/>
			<path style="fill:#5F5FCE;" d="M92.46,400h-1.93c-10.7-6.75-20.24-15.62-28.31-27.94C41.54,340.48,28.77,321.92,7,307.56
				c-2.23-1.47-4.56-2.9-7-4.26v-1.07c27.76,15.4,41.65,36.6,63.06,69.28C71.39,384.21,81.29,393.21,92.46,400z"/>
			<path style="fill:#5F5FCE;" d="M81.23,400h-1.67c-7.63-5.94-14.55-13.27-20.65-22.57c-20.69-31.58-33.44-50.15-55.21-64.5
				c-1.21-0.8-2.44-1.57-3.7-2.34v-1.1c25.59,15.24,39.21,36.04,59.76,67.39C66.06,386.49,73.26,393.98,81.23,400z"/>
			<path style="fill:#5F5FCE;" d="M71.46,400h-1.48c-5.19-4.86-9.98-10.53-14.36-17.21C34.93,351.22,22.16,332.65,0.4,318.3
				c-0.13-0.09-0.26-0.17-0.4-0.26v-1.14c23.5,15.05,36.81,35.38,56.45,65.35C61,389.19,66.02,395.03,71.46,400z"/>
			<path style="fill:#5F5FCE;" d="M62.77,400h-1.36c-3.2-3.55-6.25-7.48-9.1-11.84C32.56,358.01,20.03,339.73,0,325.65v-1.18
				c21.48,14.81,34.45,34.6,53.15,63.14C56.16,392.2,59.37,396.31,62.77,400z"/>
			<path style="fill:#5F5FCE;" d="M54.89,400h-1.27c-1.58-2.05-3.12-4.2-4.61-6.47C30.37,365.07,18.16,347.19,0,333.43v-1.23
				c19.55,14.55,32.12,33.73,49.84,60.78C51.46,395.46,53.15,397.79,54.89,400z"/>
			<path style="fill:#5F5FCE;" d="M47.65,400h-1.2c-0.25-0.36-0.5-0.73-0.74-1.1C28.22,372.21,16.39,354.82,0,341.41v-1.29
				c17.71,14.23,29.84,32.74,46.54,58.23C46.9,398.91,47.27,399.45,47.65,400z"/>
			<path style="fill:#5F5FCE;" d="M40.79,400h-1.2C24.77,377.45,13.87,361.84,0,349.59v-1.34C15.12,361.36,26.35,377.98,40.79,400z"
				/>
			<path style="fill:#5F5FCE;" d="M33.96,400h-1.2C20.83,382.03,11.26,368.73,0,357.99v-1.39C12.29,368.1,22.2,382.19,33.96,400z"/>
			<path style="fill:#5F5FCE;" d="M27.1,400h-1.26C16.68,386.4,8.76,375.64,0,366.63v-1.45C9.59,374.83,17.88,386.24,27.1,400z"/>
			<path style="fill:#5F5FCE;" d="M20.15,400h-1.26C12.35,390.52,6.33,382.5,0,375.52v-1.53C6.98,381.55,13.39,390.14,20.15,400z"/>
			<path style="fill:#5F5FCE;" d="M13.1,400h-1.27C7.81,394.37,3.94,389.3,0,384.66v-1.6C4.47,388.22,8.74,393.85,13.1,400z"/>
			<path style="fill:#5F5FCE;" d="M5.91,400H4.6c-1.54-2.06-3.07-4.05-4.6-5.96v-1.66C1.99,394.82,3.95,397.36,5.91,400z"/>
		</g>
		<g style="opacity:0.25;">
			<path style="fill:#5F5FCE;" d="M600,4.64v1.48c-1.78-1.92-3.5-3.96-5.17-6.12h1.27C597.37,1.62,598.67,3.16,600,4.64z"/>
			<path style="fill:#5F5FCE;" d="M600,13.49v1.4c-4.41-4.31-8.53-9.22-12.33-14.89h1.2C592.32,5.07,596.04,9.53,600,13.49z"/>
			<path style="fill:#5F5FCE;" d="M600,21.99v1.35c-5.93-5.24-11.39-11.47-16.31-18.97c-0.97-1.49-1.93-2.94-2.87-4.37h1.2
				c0.83,1.26,1.66,2.53,2.51,3.82C589.2,10.96,594.38,16.93,600,21.99z"/>
			<path style="fill:#5F5FCE;" d="M600,30.19v1.31c-7.22-5.8-13.8-12.88-19.61-21.76c-2.22-3.39-4.36-6.64-6.42-9.74h1.22
				c1.95,2.96,3.95,6.02,6.03,9.19C586.8,17.71,593.09,24.56,600,30.19z"/>
			<path style="fill:#5F5FCE;" d="M600,38.13v1.26c-8.54-6.23-16.23-14.07-22.92-24.28c-3.54-5.4-6.84-10.42-10.01-15.11h1.25
				c3.06,4.58,6.24,9.43,9.6,14.56C584.38,24.41,591.79,32.04,600,38.13z"/>
			<path style="fill:#5F5FCE;" d="M600,45.84v1.23c-9.86-6.58-18.68-15.09-26.22-26.6c-4.93-7.53-9.41-14.31-13.66-20.47h1.25
				c4.21,6.13,8.55,12.75,13.25,19.93C581.93,31.09,590.46,39.39,600,45.84z"/>
			<path style="fill:#5F5FCE;" d="M600,53.36v1.18c-11.2-6.85-21.14-15.92-29.52-28.7c-6.4-9.77-12.05-18.3-17.44-25.84h1.29
				c5.38,7.58,10.87,15.97,16.98,25.29C579.45,37.72,589.12,46.61,600,53.36z"/>
			<path style="fill:#5F5FCE;" d="M600,60.68v1.16c-12.56-7.05-23.63-16.6-32.83-30.63C559.19,19.04,552.4,8.81,545.81,0h1.33
				c6.64,8.95,13.28,19.08,20.87,30.66C576.96,44.34,587.77,53.73,600,60.68z"/>
			<path style="fill:#5F5FCE;" d="M600,67.85V69c-13.92-7.21-26.14-17.17-36.13-32.42C554.22,21.85,546.3,9.96,538.38,0h1.33
				c8.08,10.21,15.85,22.07,24.99,36.03C574.46,50.93,586.4,60.73,600,67.85z"/>
			<path style="fill:#5F5FCE;" d="M600,74.89v1.12c-15.29-7.32-28.67-17.62-39.44-34.06C549.12,24.48,540.1,11,530.63,0h1.38
				c9.71,11.37,18.6,24.93,29.39,41.4C571.95,57.48,585.02,67.64,600,74.89z"/>
			<path style="fill:#5F5FCE;" d="M600,81.79v1.11c-16.68-7.4-31.2-17.97-42.74-35.59C543.88,26.9,533.82,11.92,522.49,0h1.4
				c11.7,12.41,21.66,27.62,34.21,46.77C569.4,64.03,583.64,74.46,600,81.79z"/>
			<path style="fill:#5F5FCE;" d="M600,88.59v1.09c-18.07-7.47-33.75-18.23-46.04-37C538.49,29.08,527.45,12.74,513.77,0h1.47
				c14.13,13.33,25.14,30.14,39.55,52.14C566.85,70.55,582.24,81.19,600,88.59z"/>
			<path style="fill:#5F5FCE;" d="M600,95.29v1.09c-19.46-7.53-36.31-18.43-49.35-38.33C532.92,30.99,521.01,13.49,504.27,0h1.57
				c17.23,14.12,29.23,32.44,45.65,57.5C564.3,77.05,580.85,87.84,600,95.29z"/>
			<path style="fill:#5F5FCE;" d="M600,101.91v1.07c-20.87-7.56-38.88-18.54-52.65-39.56C527.17,32.62,514.53,14.21,493.73,0h1.7
				c21.25,14.79,34.17,34.5,52.75,62.87C561.72,83.53,579.45,94.41,600,101.91z"/>
			<path style="fill:#5F5FCE;" d="M600,108.45v1.05c-22.27-7.59-41.46-18.59-55.96-40.71c-20.68-31.58-33.45-50.14-55.22-64.5
				c-2.25-1.48-4.59-2.91-7.04-4.29h1.9c26.53,15.32,40.28,36.3,61.2,68.24C559.14,90,578.05,100.91,600,108.45z"/>
			<path style="fill:#5F5FCE;" d="M600,114.92v1.06c-23.68-7.64-44.06-18.61-59.26-41.82c-20.69-31.58-33.45-50.15-55.22-64.5
				c-5.3-3.5-11.13-6.7-17.68-9.66h2.21c33.61,15.73,48.05,37.77,71.53,73.61C556.54,96.45,576.64,107.34,600,114.92z"/>
			<path style="fill:#5F5FCE;" d="M600,121.33v1.04c-25.09-7.68-46.65-18.56-62.56-42.85c-20.69-31.57-33.46-50.14-55.23-64.49
				C473.55,9.32,463.48,4.39,451.16,0h2.71c43.17,16.05,58.13,38.87,84.4,78.98C553.94,102.89,575.22,113.7,600,121.33z"/>
			<path style="fill:#5F5FCE;" d="M600,127.7v1.04c-26.5-7.76-49.26-18.51-65.87-43.85c-20.69-31.58-33.45-50.14-55.22-64.5
				c-12.36-8.15-27.6-14.7-48.18-20.39h3.46c56.21,16.31,71.42,39.55,100.78,84.34C551.33,109.31,573.81,119.99,600,127.7z"/>
			<path style="fill:#5F5FCE;" d="M600,134.01v1.04c-27.92-7.84-51.88-18.4-69.17-44.79c-20.69-31.58-33.46-50.14-55.22-64.5
				C459.17,14.92,437.65,6.91,405.26,0h4.57c73.95,16.63,89.11,39.77,121.83,89.71C548.7,115.72,572.39,126.23,600,134.01z"/>
			<path style="fill:#5F5FCE;" d="M600,140.29v1.04c-29.33-7.95-54.51-18.28-72.48-45.7c-20.69-31.58-33.45-50.14-55.22-64.5
				C451.45,17.38,422.44,8.19,373.42,0h5.91c97.97,17.15,112.65,39.54,149.03,95.08C546.08,122.12,570.98,132.41,600,140.29z"/>
			<path style="fill:#5F5FCE;" d="M600,146.55v1.03c-30.74-8.07-57.14-18.13-75.78-46.58C503.53,69.42,490.77,50.85,469,36.5
				c-22.12-14.59-53.44-24.04-108.08-32.63c-6.36-1-12.41-2.29-18.16-3.87h3.97c4.59,1.15,9.37,2.11,14.34,2.89
				c111.54,17.52,125.82,39.31,163.99,97.56C543.44,128.51,569.57,138.53,600,146.55z"/>
		</g>
	</g>
</g>
</svg>
